<svg width="39" height="36" viewBox="0 0 39 36" fill="none" xmlns="http://www.w3.org/2000/svg">
<path d="M18.5897 0.0281315C18.1086 0.0994034 17.5978 0.295404 17.1791 0.574558C16.9267 0.740862 16.5822 1.07941 16.4011 1.3348C16.2971 1.48032 4.46875 21.9238 4.46875 21.9565C4.46875 21.9595 4.65881 21.8377 4.89342 21.6833C7.12664 20.1984 10.0281 18.8413 14.2391 17.3029C15.231 16.9406 15.5814 16.8189 17.8028 16.0468C18.759 15.7171 19.6737 15.3964 19.837 15.334C22.5068 14.3303 24.8707 12.8276 26.7178 10.9626L27.0653 10.6122L24.4668 6.11307C23.0384 3.6393 21.8089 1.52487 21.7376 1.41499C21.4704 1.0111 21.0397 0.625042 20.5943 0.384497C20.0122 0.0726757 19.2312 -0.0639305 18.5897 0.0281315Z" fill="#000"/>
<path d="M31.2587 7.76707C31.2379 7.81459 31.1013 8.0581 30.9528 8.31053C29.0373 11.5861 26.1775 14.2351 22.6465 16.0021C21.4616 16.5931 20.9151 16.8098 18.3226 17.7097C13.2206 19.4826 11.225 20.2666 8.87889 21.4218C3.43541 24.1094 0.700306 27.1712 0.0885455 31.2664C0.0439998 31.5842 -0.0124247 32.2227 0.00242386 32.2434C0.00836328 32.2494 0.0439998 32.2167 0.0796364 32.1692C0.545881 31.5753 1.34176 30.7942 2.13765 30.1498C5.41027 27.5068 10.7795 24.9973 18.0405 22.7136C18.3582 22.6127 18.8928 22.4404 19.2283 22.3276C23.0622 21.0565 26.0973 18.9896 28.1553 16.2545C29.554 14.3984 30.5667 12.0761 31.0448 9.63799C31.1814 8.94308 31.3507 7.68689 31.3091 7.68689C31.3002 7.68689 31.2794 7.72253 31.2587 7.76707Z" fill="#000"/>
<path d="M30.0828 16.5428C28.4465 19.0106 26.0945 21.0597 23.1634 22.5683C21.8003 23.2692 20.6718 23.7116 18.4713 24.4036C11.2964 26.6635 6.11132 29.1076 2.99906 31.7002C2.50906 32.107 1.76366 32.8524 1.43996 33.2563C1.11924 33.6572 0.857901 34.0611 0.673779 34.4323C0.45699 34.8689 0.45402 34.8273 0.712385 34.9758C1.14299 35.2223 1.51421 35.344 2.01906 35.4004L2.31603 35.4331L7.43878 34.5541C12.7635 33.6364 13.3366 33.5444 14.4473 33.4226C15.944 33.2563 16.8884 33.1999 18.501 33.1761C20.85 33.1464 23.0268 33.2919 25.2274 33.6305C25.6639 33.6988 30.9203 34.5956 34.4335 35.2044L35.755 35.4331L36.0728 35.3975C37.6229 35.2312 38.8079 34.0344 38.9831 32.4575C39.0454 31.8991 38.9356 31.2785 38.6861 30.7588C38.5584 30.4915 30.3293 16.2399 30.3026 16.2399C30.2937 16.2399 30.1927 16.3765 30.0828 16.5428Z" fill="#000"/>
</svg>
