<?xml version="1.0" encoding="UTF-8"?>
<svg width="36px" height="36px" viewBox="0 0 36 36" version="1.1" xmlns="http://www.w3.org/2000/svg" xmlns:xlink="http://www.w3.org/1999/xlink">
    <!-- Generator: Sketch 62 (91390) - https://sketch.com -->
    <title>bitcoin-btc-logo</title>
    <desc>Created with Sketch.</desc>
    <g id="Design-Screens" stroke="none" stroke-width="1" fill="none" fill-rule="evenodd">
        <g id="01.3.Main-Connected" transform="translate(-275.000000, -3061.000000)" fill-rule="nonzero">
            <g id="1-copy-9" transform="translate(135.000000, 3021.000000)">
                <g id="bitcoin-btc-logo" transform="translate(140.000000, 40.000000)">
                    <path d="M35.4614277,22.3542876 C33.0571263,31.9972423 23.2892778,37.8657537 13.6440906,35.4611078 C4.00295103,33.0570778 -1.8662229,23.2897161 0.539134418,13.6475533 C2.94237993,4.00354284 12.7102284,-1.86540847 22.3524239,0.538621534 C31.9969071,2.94265154 37.8657291,12.711069 35.4611637,22.3544636 L35.4613397,22.3542876 L35.4614277,22.3542876 Z" id="Path" fill="#F7931A"></path>
                    <path d="M26.9555865,15.8442028 C27.3092368,13.5325156 25.5090248,12.2898968 23.0473685,11.4609465 L23.8459477,8.32956396 L21.8961812,7.85459233 L21.1187933,10.9035298 C20.6062088,10.7785462 20.0798152,10.6607798 19.5566351,10.5440322 L20.3396683,7.47497163 L18.3911177,7 L17.5921042,10.1303636 C17.1679323,10.0359467 16.7513163,9.94263352 16.3471197,9.84431082 L16.3493778,9.83446157 L13.6606106,9.17804296 L13.1419467,11.213951 C13.1419467,11.213951 14.5885084,11.5381273 14.5580243,11.5580805 C15.3475712,11.7507352 15.4903514,12.2617076 15.4666416,12.6667156 L14.5569821,16.2340972 C14.6113498,16.2475975 14.6818714,16.2671262 14.7596884,16.2976928 C14.6946383,16.2819001 14.6254194,16.2646639 14.553595,16.2478522 L13.2785606,21.2452433 C13.1820711,21.4797573 12.9371561,21.8316982 12.385142,21.6980541 C12.4046831,21.7257339 10.9680222,21.3523114 10.9680222,21.3523114 L10,23.5342601 L12.537302,24.1526402 C13.0093278,24.2683689 13.4718871,24.3894468 13.9274117,24.5033075 L13.1205818,27.6706059 L15.0680902,28.1455775 L15.8671037,25.0119025 C16.3991424,25.1531034 16.9154614,25.2833512 17.4209243,25.4061272 L16.6246031,28.5250284 L18.5744565,29 L19.3811995,25.8386452 C22.705964,26.4537988 25.2059208,26.2057845 26.2581867,23.2657831 C27.1060963,20.8987364 26.215978,19.5334265 24.4668333,18.6430882 C25.7408255,18.3558466 26.7004233,17.5366607 26.9562813,15.8444575 L26.9556734,15.8440329 L26.9555865,15.8442028 Z M22.500826,21.9512478 C21.8982656,24.3182944 17.8217337,23.0387409 16.5000613,22.7178761 L17.5707393,18.5217556 C18.8923249,18.8443185 23.1305702,19.4826519 22.5009128,21.9512478 L22.500826,21.9512478 Z M23.1038206,15.8099002 C22.5541514,17.9629804 19.1612103,16.8691192 18.0605693,16.6008969 L19.0312838,12.7952653 C20.1319248,13.0634875 23.6764179,13.5641012 23.1039943,15.8099002 L23.1038206,15.8099002 Z" id="Shape" fill="#FFFFFF"></path>
                </g>
            </g>
        </g>
    </g>
</svg>