<svg width="19" height="19" viewBox="0 0 19 19" fill="none" xmlns="http://www.w3.org/2000/svg">
<g clip-path="url(#clip0_1_65)">
<path d="M7.32287 0H1.38537C0.621437 0 0 0.621437 0 1.38537V4.94787C0 5.71194 0.621437 6.33338 1.38537 6.33338H7.32287C8.08694 6.33338 8.70838 5.71194 8.70838 4.94787V1.38537C8.70838 0.621437 8.08694 0 7.32287 0Z" fill="white"/>
<path d="M7.32287 7.91663H1.38537C0.621437 7.91663 0 8.53806 0 9.30214V17.6146C0 18.3786 0.621437 19 1.38537 19H7.32287C8.08694 19 8.70838 18.3786 8.70838 17.6146V9.30214C8.70838 8.53806 8.08694 7.91663 7.32287 7.91663Z" fill="white"/>
<path d="M17.6146 12.6666H11.6771C10.9131 12.6666 10.2916 13.2881 10.2916 14.0521V17.6146C10.2916 18.3786 10.9131 19 11.6771 19H17.6146C18.3786 19 19 18.3786 19 17.6146V14.0521C19 13.2881 18.3786 12.6666 17.6146 12.6666Z" fill="white"/>
<path d="M17.6146 0H11.6771C10.9131 0 10.2916 0.621437 10.2916 1.38537V9.69787C10.2916 10.4619 10.9131 11.0834 11.6771 11.0834H17.6146C18.3786 11.0834 19 10.4619 19 9.69787V1.38537C19 0.621437 18.3786 0 17.6146 0V0Z" fill="white"/>
</g>
<defs>
<clipPath id="clip0_1_65">
<rect width="19" height="19" fill="white"/>
</clipPath>
</defs>
</svg>
