<svg width="17" height="19" viewBox="0 0 17 19" fill="none" xmlns="http://www.w3.org/2000/svg">
<path d="M2.92661 15.1677H15.8688C15.9085 15.1677 15.9468 15.1621 15.9837 15.1533C15.9867 15.1533 15.9891 15.1537 15.9921 15.1537C16.2683 15.1537 16.4928 14.9295 16.4928 14.6531V0.50073C16.4928 0.224326 16.2683 0 15.9921 0H15.8698H3.72745H2.92732C1.59452 0 0.510407 1.08436 0.510407 2.41678C0.510407 2.43465 0.513924 2.45161 0.515661 2.46886C0.513924 3.6997 0.49866 15.0095 0.513924 16.4963C0.512972 16.5254 0.509415 16.5538 0.509415 16.5831C0.509415 17.8644 1.51261 18.9132 2.77447 18.9925C2.79979 18.9964 2.8246 19 2.85087 19H15.992C16.2683 19 16.4927 18.7758 16.4927 18.4993V16.6145C16.4927 16.3382 16.2683 16.1138 15.992 16.1138C15.7158 16.1138 15.4913 16.3382 15.4913 16.6145V17.9986H2.92661C2.16569 17.9986 1.54455 17.3945 1.51402 16.6411C1.51476 16.6277 1.5172 16.615 1.51696 16.6013C1.51646 16.5793 1.51572 16.5451 1.51522 16.4996C1.55898 15.7581 2.17438 15.1677 2.92661 15.1677ZM3.26804 2.41678C3.26804 2.14038 3.49237 1.91605 3.76877 1.91605C4.04518 1.91605 4.2695 2.14038 4.2695 2.41678V12.588C4.2695 12.8642 4.04518 13.0887 3.76877 13.0887C3.49237 13.0887 3.26804 12.8642 3.26804 12.588V2.41678Z" fill="white"/>
</svg>
