<svg width="17" height="17" viewBox="0 0 17 17" fill="none" xmlns="http://www.w3.org/2000/svg">
<path d="M14.672 5.47483L12.8017 7.34812C12.7189 7.43103 12.6206 7.49681 12.5123 7.54169C12.4041 7.58657 12.2881 7.60967 12.1709 7.60967C12.0537 7.60967 11.9376 7.58657 11.8294 7.54169C11.7212 7.49681 11.6228 7.43103 11.54 7.34812L9.65188 5.45999C9.48505 5.29242 9.39138 5.06559 9.39138 4.82913C9.39138 4.59267 9.48505 4.36584 9.65188 4.19827L11.5252 2.32499C11.6921 2.15818 11.9185 2.06447 12.1545 2.06447C12.3906 2.06447 12.6169 2.15818 12.7839 2.32499L14.672 4.21608C14.7549 4.29865 14.8206 4.39674 14.8654 4.50474C14.9102 4.61274 14.9333 4.72852 14.9333 4.84546C14.9333 4.96239 14.9102 5.07818 14.8654 5.18618C14.8206 5.29418 14.7549 5.39227 14.672 5.47483ZM5.02954 0.614991C5.0625 0.676617 5.11181 0.727974 5.17204 0.763428C6.55822 1.72029 7.87743 2.77071 9.12048 3.90733C9.18255 3.81169 10.8287 2.18198 11.1036 1.9064C8.60211 0.197065 5.73959 0.192267 5.27891 0.19043C5.22992 0.192333 5.18218 0.206527 5.14011 0.231706C5.09803 0.256885 5.06297 0.292241 5.03813 0.334521C5.0133 0.3768 4.9995 0.424646 4.99799 0.473657C4.99649 0.522668 5.00734 0.57127 5.02954 0.614991ZM15.1084 5.87858C14.6524 6.3471 13.1372 7.84983 13.0897 7.88249C14.2399 9.13926 15.3013 10.4745 16.2663 11.8784C16.3019 11.9293 16.3525 11.9677 16.411 11.9885C16.4695 12.0093 16.5331 12.0113 16.5928 11.9943C16.6525 11.9774 16.7055 11.9422 16.7443 11.8938C16.7831 11.8453 16.8059 11.786 16.8095 11.724C16.8099 9.65344 16.2198 7.62568 15.1084 5.87858ZM9.28673 5.93499L0.555629 14.6661C0.438581 14.7823 0.345771 14.9206 0.282579 15.073C0.219387 15.2254 0.187071 15.3888 0.187504 15.5537C0.19017 15.8012 0.265444 16.0425 0.403984 16.2475C0.542524 16.4526 0.738232 16.6125 0.966822 16.7073C1.19541 16.8022 1.44682 16.8278 1.68985 16.7811C1.93288 16.7343 2.15683 16.6172 2.33391 16.4443L11.065 7.71327C10.795 7.4428 9.28673 5.93499 9.28673 5.93499ZM15.0402 3.74405L15.3727 3.40858C16.5142 2.20359 14.7932 0.485143 13.5943 1.63033L13.2619 1.96577C13.532 2.23593 15.0402 3.74405 15.0402 3.74405Z" fill="white"/>
</svg>
