<svg width="15" height="19" viewBox="0 0 15 19" fill="none" xmlns="http://www.w3.org/2000/svg">
<path d="M10.8583 5.30226H13.961L9.04663 0.387878V3.49063C9.04663 4.49012 9.85966 5.30226 10.8583 5.30226Z" fill="white"/>
<path d="M11.035 11.0465H3.96521C3.59935 11.0465 3.30242 10.7495 3.30242 10.3837C3.30242 10.0178 3.59935 9.72089 3.96521 9.72089H11.035C11.4009 9.72089 11.6978 10.0178 11.6978 10.3837C11.6978 10.7495 11.4009 11.0465 11.035 11.0465ZM11.035 14.5814H3.96521C3.59935 14.5814 3.30242 14.2844 3.30242 13.9186C3.30242 13.5527 3.59935 13.2558 3.96521 13.2558H11.035C11.4009 13.2558 11.6978 13.5527 11.6978 13.9186C11.6978 14.2844 11.4009 14.5814 11.035 14.5814ZM3.96521 6.186H5.73265C6.09852 6.186 6.39545 6.48293 6.39545 6.84879C6.39545 7.21465 6.09852 7.51159 5.73265 7.51159H3.96521C3.59935 7.51159 3.30242 7.21465 3.30242 6.84879C3.30242 6.48293 3.59935 6.186 3.96521 6.186ZM3.96521 2.65111H5.73265C6.09852 2.65111 6.39545 2.94804 6.39545 3.3139C6.39545 3.67976 6.09852 3.97669 5.73265 3.97669H3.96521C3.59935 3.97669 3.30242 3.67976 3.30242 3.3139C3.30242 2.94804 3.59935 2.65111 3.96521 2.65111ZM10.8583 6.62786C9.1288 6.62786 7.72103 5.22097 7.72103 3.49064V-6.10352e-05H2.19776C1.34497 -6.10352e-05 0.651245 0.693662 0.651245 1.54645V17.4535C0.651245 18.3063 1.34497 19 2.19776 19H12.8024C13.6552 19 14.349 18.3063 14.349 17.4535V6.62786H10.8583Z" fill="white"/>
</svg>
