<svg width="19" height="19" viewBox="0 0 19 19" fill="none" xmlns="http://www.w3.org/2000/svg">
<path d="M15.672 6.47483L13.8017 8.34812C13.7189 8.43103 13.6206 8.49681 13.5123 8.54169C13.4041 8.58657 13.2881 8.60967 13.1709 8.60967C13.0537 8.60967 12.9376 8.58657 12.8294 8.54169C12.7212 8.49681 12.6228 8.43103 12.54 8.34812L10.6519 6.45999C10.485 6.29242 10.3914 6.06559 10.3914 5.82913C10.3914 5.59267 10.485 5.36584 10.6519 5.19827L12.5252 3.32499C12.6921 3.15818 12.9185 3.06447 13.1545 3.06447C13.3906 3.06447 13.6169 3.15818 13.7839 3.32499L15.672 5.21608C15.7549 5.29865 15.8206 5.39674 15.8654 5.50474C15.9102 5.61274 15.9333 5.72852 15.9333 5.84546C15.9333 5.96239 15.9102 6.07818 15.8654 6.18618C15.8206 6.29418 15.7549 6.39227 15.672 6.47483ZM6.02954 1.61499C6.0625 1.67662 6.11181 1.72797 6.17204 1.76343C7.55822 2.72029 8.87743 3.77071 10.1205 4.90733C10.1825 4.81169 11.8287 3.18198 12.1036 2.9064C9.60211 1.19706 6.73959 1.19227 6.27891 1.19043C6.22992 1.19233 6.18218 1.20653 6.14011 1.23171C6.09803 1.25688 6.06297 1.29224 6.03813 1.33452C6.0133 1.3768 5.9995 1.42465 5.99799 1.47366C5.99649 1.52267 6.00734 1.57127 6.02954 1.61499ZM16.1084 6.87858C15.6524 7.3471 14.1372 8.84983 14.0897 8.88249C15.2399 10.1393 16.3013 11.4745 17.2663 12.8784C17.3019 12.9293 17.3525 12.9677 17.411 12.9885C17.4695 13.0093 17.5331 13.0113 17.5928 12.9943C17.6525 12.9774 17.7055 12.9422 17.7443 12.8938C17.7831 12.8453 17.8059 12.786 17.8095 12.724C17.8099 10.6534 17.2198 8.62568 16.1084 6.87858ZM10.2867 6.93499L1.55563 15.6661C1.43858 15.7823 1.34577 15.9206 1.28258 16.073C1.21939 16.2254 1.18707 16.3888 1.1875 16.5537C1.19017 16.8012 1.26544 17.0425 1.40398 17.2475C1.54252 17.4526 1.73823 17.6125 1.96682 17.7073C2.19541 17.8022 2.44682 17.8278 2.68985 17.7811C2.93288 17.7343 3.15683 17.6172 3.33391 17.4443L12.065 8.71327C11.795 8.4428 10.2867 6.93499 10.2867 6.93499ZM16.0402 4.74405L16.3727 4.40858C17.5142 3.20359 15.7932 1.48514 14.5943 2.63033L14.2619 2.96577C14.532 3.23593 16.0402 4.74405 16.0402 4.74405Z" fill="#83829B"/>
</svg>
