<svg width="33" height="33" viewBox="0 0 33 33" fill="none" xmlns="http://www.w3.org/2000/svg">
<g clip-path="url(#clip0_8_691)">
<path d="M15.4931 0.424011C15.187 0.424011 14.8934 0.545619 14.6769 0.762083C14.4605 0.978547 14.3389 1.27214 14.3389 1.57826V15.4698C14.3389 16.3908 14.7048 17.2742 15.356 17.9255C16.0073 18.5767 16.8907 18.9426 17.8117 18.9426H31.6931C31.8456 18.9426 31.9965 18.9125 32.1372 18.8538C32.2779 18.7952 32.4056 18.7093 32.5129 18.601C32.6202 18.4927 32.705 18.3643 32.7624 18.2231C32.8198 18.0819 32.8487 17.9307 32.8474 17.7783C32.842 13.1773 31.0119 8.76627 27.7585 5.51287C24.5051 2.25948 20.0941 0.429371 15.4931 0.424011V0.424011ZM17.8117 16.624C17.6593 16.6254 17.5081 16.5965 17.3669 16.5391C17.2257 16.4817 17.0973 16.3969 16.989 16.2895C16.8808 16.1822 16.7948 16.0545 16.7362 15.9138C16.6775 15.7731 16.6474 15.6222 16.6474 15.4698V2.78314C20.2247 3.06393 23.5844 4.61233 26.1217 7.14967C28.6591 9.68701 30.2075 13.0467 30.4882 16.624H17.8117Z" fill="#DC5353"/>
<path d="M28.9601 21.322C28.8165 21.2708 28.6642 21.2485 28.512 21.2565C28.3598 21.2644 28.2107 21.3025 28.0732 21.3684C27.9358 21.4342 27.8128 21.5267 27.7113 21.6404C27.6098 21.7541 27.5318 21.8868 27.4818 22.0307C26.5784 24.6355 24.8472 26.8729 22.5528 28.4013C20.2583 29.9297 17.5266 30.6652 14.7749 30.4952C11.6299 30.3001 8.66691 28.9533 6.45186 26.7121C4.23681 24.4709 2.9249 21.4924 2.76667 18.3452C2.63629 15.6185 3.39106 12.9226 4.91836 10.66C6.44567 8.39729 8.66363 6.68909 11.2413 5.79025C11.3849 5.73972 11.5171 5.66141 11.6305 5.55977C11.7438 5.45814 11.836 5.33518 11.9018 5.19791C11.9676 5.06064 12.0058 4.91176 12.014 4.75975C12.0223 4.60775 12.0006 4.4556 11.95 4.312C11.8995 4.1684 11.8212 4.03616 11.7196 3.92282C11.6179 3.80949 11.495 3.71728 11.3577 3.65147C11.2204 3.58566 11.0716 3.54752 10.9196 3.53925C10.7675 3.53098 10.6154 3.55272 10.4718 3.60325C7.42962 4.66201 4.81061 6.67475 3.00451 9.34193C1.19842 12.0091 0.301786 15.1882 0.448048 18.406C0.628961 22.1302 2.17356 25.6578 4.7876 28.3166C7.40164 30.9755 10.9024 32.5798 14.6231 32.824H15.4736C18.5869 32.8418 21.6278 31.8848 24.1699 30.0872C26.7119 28.2896 28.6277 25.7416 29.6486 22.8002C29.753 22.5129 29.7391 22.1959 29.61 21.9187C29.4809 21.6416 29.2472 21.427 28.9601 21.322V21.322Z" fill="#DC5353"/>
</g>
<defs>
<clipPath id="clip0_8_691">
<rect width="32.4" height="32.4" fill="white" transform="translate(0.447754 0.424011)"/>
</clipPath>
</defs>
</svg>
