<svg width="34" height="33" viewBox="0 0 34 33" fill="none" xmlns="http://www.w3.org/2000/svg">
<g clip-path="url(#clip0_8_678)">
<path d="M15.79 0.424072C15.4839 0.424072 15.1903 0.54568 14.9738 0.762144C14.7573 0.978608 14.6357 1.2722 14.6357 1.57832V15.4698C14.6357 16.3909 15.0016 17.2742 15.6529 17.9255C16.3042 18.5768 17.1876 18.9427 18.1086 18.9427H31.99C32.1424 18.9427 32.2934 18.9125 32.4341 18.8539C32.5748 18.7952 32.7025 18.7093 32.8098 18.6011C32.9171 18.4928 33.0019 18.3644 33.0593 18.2231C33.1167 18.0819 33.1456 17.9308 33.1442 17.7783C33.1389 13.1773 31.3088 8.76633 28.0554 5.51293C24.802 2.25954 20.391 0.429432 15.79 0.424072V0.424072ZM18.1086 16.6241C17.9562 16.6254 17.805 16.5965 17.6638 16.5391C17.5226 16.4817 17.3941 16.3969 17.2859 16.2896C17.1776 16.1823 17.0917 16.0546 17.0331 15.9139C16.9744 15.7732 16.9442 15.6223 16.9442 15.4698V2.7832C20.5216 3.06399 23.8812 4.61239 26.4186 7.14973C28.9559 9.68707 30.5043 13.0467 30.7851 16.6241H18.1086Z" fill="#2CA588"/>
<path d="M29.256 21.3221C29.1124 21.2709 28.9601 21.2486 28.8079 21.2565C28.6557 21.2645 28.5066 21.3025 28.3691 21.3684C28.2317 21.4343 28.1087 21.5268 28.0072 21.6405C27.9057 21.7541 27.8277 21.8868 27.7777 22.0308C26.8743 24.6355 25.1431 26.8729 22.8487 28.4014C20.5542 29.9298 17.8225 30.6652 15.0708 30.4953C11.9258 30.3002 8.9628 28.9534 6.74776 26.7122C4.53271 24.471 3.2208 21.4924 3.06257 18.3453C2.93219 15.6185 3.68696 12.9227 5.21426 10.66C6.74156 8.39735 8.95952 6.68915 11.5372 5.79031C11.6808 5.73978 11.813 5.66147 11.9264 5.55984C12.0397 5.4582 12.1319 5.33524 12.1977 5.19797C12.2635 5.0607 12.3017 4.91182 12.3099 4.75981C12.3182 4.60781 12.2965 4.45566 12.2459 4.31206C12.1954 4.16846 12.1171 4.03622 12.0155 3.92288C11.9138 3.80955 11.7909 3.71734 11.6536 3.65153C11.5163 3.58572 11.3675 3.54758 11.2155 3.53931C11.0634 3.53104 10.9113 3.55278 10.7677 3.60331C7.72552 4.66208 5.10651 6.67481 3.30041 9.34199C1.49432 12.0092 0.597684 15.1882 0.743946 18.4061C0.924859 22.1303 2.46946 25.6578 5.0835 28.3167C7.69754 30.9755 11.1983 32.5799 14.9189 32.8241H15.7694C18.8828 32.8419 21.9237 31.8849 24.4658 30.0873C27.0078 28.2897 28.9236 25.7416 29.9445 22.8003C30.0489 22.513 30.035 22.1959 29.9059 21.9188C29.7768 21.6417 29.5431 21.427 29.256 21.3221Z" fill="#2CA588"/>
</g>
<defs>
<clipPath id="clip0_8_678">
<rect width="32.4" height="32.4" fill="white" transform="translate(0.744141 0.424072)"/>
</clipPath>
</defs>
</svg>
