<svg width="19" height="19" viewBox="0 0 19 19" fill="none" xmlns="http://www.w3.org/2000/svg">
<path d="M0 11.6905C0 6.25944 4.40277 1.85671 9.83383 1.85671H11.875V0.557701C11.875 0.0757619 12.4458 -0.178437 12.804 0.143969L16.5149 3.48381C16.7606 3.70495 16.7606 4.09018 16.5149 4.31131L12.804 7.65116C12.4458 7.97356 11.875 7.71933 11.875 7.23743V5.93875H9.97659C6.07402 5.93875 2.55728 8.29389 1.07135 11.9025C0.839191 12.4663 0 12.3003 0 11.6905H0Z" fill="white"/>
<path d="M19 7.30942C19 12.7405 14.5972 17.1433 9.16615 17.1433H7.12499V18.4422C7.12499 18.9242 6.55417 19.1784 6.19599 18.856L2.48506 15.5161C2.23936 15.295 2.23936 14.9098 2.48506 14.6886L6.19599 11.3488C6.55421 11.0264 7.12499 11.2806 7.12499 11.7625V13.0612H9.02339C12.926 13.0612 16.4427 10.706 17.9286 7.09745C18.1608 6.53369 19 6.69968 19 7.30942Z" fill="white"/>
</svg>
